:SAMPLES-PER-SECOND 30
:FULLY-SPECIFIED
:DEGREES
91
root  -41.0077 36.3374 -33.0127 54.3843 -83.0102 -11.1822
RightUpLeg  -85.6951 -18.6486 33.5699
RightLeg  42.7225 1.28752 0.966349
RightFoot  -1.95801 1.01612 -12.4791
RightToes  0.00048216 0.542163 -0.142577
Spine  73.7826 -4.97252 5.8402
Spine1  3.45651 0.221629 -6.8083
HEad  -50.1183 -1.33943 -0.943589
LeftShoulder1  3.50726 -19.954 -7.32315
LeftArm  -102.971 -57.5772 37.9389
LeftForeArm  -1.56851 -17.5684 0.104607
LeftHand  -0.25398 0.0180481 5.50724
RightShoulder  1.86789 14.049 2.53599
RightArm  -85.2252 53.4355 -19.2607
RightForeArm  -14.8787 21.415 5.00797
RightHand  0.760736 8.07779 6.05302
LeftUpLeg  -85.7279 21.1961 -31.8291
LeftLeg  46.291 0.971691 1.51138
LeftFoot  -6.52918 -0.404271 10.5273
LeftToes  1.06244e-005 4.65856e-005 -8.18505e-006
92
root  -40.8674 36.3828 -32.9498 54.2483 -83 -11.4884
RightUpLeg  -85.3976 -18.9723 33.6618
RightLeg  42.3369 1.34283 1.00614
RightFoot  -1.7157 1.03221 -12.3333
RightToes  0.00048216 0.542163 -0.142577
Spine  73.9222 -5.20764 5.67166
Spine1  3.21737 -0.00802421 -7.31267
HEad  -50.66 -0.753776 -1.07881
LeftShoulder1  3.40862 -19.2207 -7.38259
LeftArm  -102.427 -58.421 36.926
LeftForeArm  -1.83571 -17.9497 -0.457898
LeftHand  -0.25398 0.0180481 5.50724
RightShoulder  1.86923 13.7643 2.74198
RightArm  -85.7147 53.8741 -18.1281
RightForeArm  -13.0061 21.349 4.87766
RightHand  0.946171 7.47609 8.03263
LeftUpLeg  -85.3221 21.2579 -31.8156
LeftLeg  45.9576 0.941844 1.46338
LeftFoot  -6.23146 -0.437551 10.6175
LeftToes  1.06244e-005 4.65856e-005 -8.18505e-006
93
root  -40.6826 36.4169 -32.882 52.8945 -82.9322 -10.7511
RightUpLeg  -84.9513 -19.2999 33.4194
RightLeg  41.8814 1.2615 0.910326
RightFoot  -1.38704 1.12854 -12.9916
RightToes  0.00048216 0.542163 -0.142577
Spine  74.1067 -5.65465 5.68501
Spine1  2.53558 -0.228197 -8.25002
HEad  -50.8284 -0.322629 -0.88981
LeftShoulder1  3.36649 -19.2408 -7.16106
LeftArm  -100.654 -58.9306 34.7337
LeftForeArm  -1.54498 -18.7035 -1.40178
LeftHand  -0.25398 0.0180481 5.50724
RightShoulder  2.03557 14.1621 3.53405
RightArm  -84.7323 53.5161 -17.0215
RightForeArm  -11.8232 20.8202 4.57979
RightHand  1.12618 6.91292 10.1167
LeftUpLeg  -84.6513 21.2349 -31.6566
LeftLeg  45.6055 0.875839 1.37588
LeftFoot  -6.03873 -0.453575 10.5499
LeftToes  1.06244e-005 4.65856e-005 -8.18505e-006
94
root  -40.4743 36.4382 -32.8122 51.4447 -82.8063 -9.96379
RightUpLeg  -84.2709 -19.5667 33.0618
RightLeg  41.1564 1.14339 0.774303
RightFoot  -1.11359 1.25756 -14.0489
RightToes  0.00048216 0.542163 -0.142577
Spine  74.0087 -6.07128 5.61708
Spine1  2.49616 -0.549647 -8.95272
HEad  -51.2253 0.286578 -0.861621
LeftShoulder1  3.30328 -18.8992 -7.09975
LeftArm  -98.982 -59.1221 33.2323
LeftForeArm  -1.176 -19.5838 -2.40155
LeftHand  -0.25398 0.0180481 5.50724
RightShoulder  2.04333 14.4534 3.36846
RightArm  -83.6411 52.9036 -15.0062
RightForeArm  -10.3821 20.6535 4.42394
RightHand  1.28155 6.47457 12.019
LeftUpLeg  -83.8284 21.1999 -31.5029
LeftLeg  45.0996 0.856917 1.33524
LeftFoot  -6.18344 -0.437243 10.5059
LeftToes  1.06244e-005 4.65856e-005 -8.18505e-006
95
root  -40.2335 36.4759 -32.7439 50.182 -82.6051 -9.49726
RightUpLeg  -83.2901 -19.9038 32.7108
RightLeg  40.1086 0.911396 0.532865
RightFoot  -0.973342 1.32681 -14.5989
RightToes  0.00048216 0.542163 -0.142577
Spine  73.8458 -6.37356 5.40574
Spine1  2.8408 -0.942748 -9.30015
HEad  -51.5885 1.1103 -1.17822
LeftShoulder1  3.12216 -17.879 -6.9488
LeftArm  -97.916 -59.4685 31.6265
LeftForeArm  -0.0558184 -20.5671 -3.28364
LeftHand  -0.25398 0.0180481 5.50724
RightShoulder  1.94244 14.408 2.76475
RightArm  -81.805 52.443 -11.8472
RightForeArm  -9.10825 21.4471 4.73425
RightHand  1.35324 6.04363 13.2149
LeftUpLeg  -82.8752 21.2566 -31.4548
LeftLeg  44.3516 0.866515 1.31665
LeftFoot  -6.28018 -0.435839 10.6863
LeftToes  1.06244e-005 4.65856e-005 -8.18505e-006
96
root  -39.9405 36.5483 -32.6807 48.8543 -82.3258 -9.21835
RightUpLeg  -82.0803 -20.4408 32.4088
RightLeg  38.8512 0.674737 0.298794
RightFoot  -0.736466 1.35966 -14.6051
RightToes  0.00048216 0.542163 -0.142577
Spine  73.7097 -6.51489 5.22403
Spine1  3.02749 -1.20875 -9.32778
HEad  -51.409 1.72807 -1.93181
LeftShoulder1  2.95605 -16.8719 -6.84988
LeftArm  -96.5906 -60.273 28.7235
LeftForeArm  1.63275 -21.8201 -4.13064
LeftHand  -0.25398 0.0180481 5.50724
RightShoulder  1.95745 14.6109 2.71883
RightArm  -78.1378 51.5773 -8.42755
RightForeArm  -9.54115 22.9735 5.33412
RightHand  1.34345 5.64088 13.6239
LeftUpLeg  -81.7269 21.3715 -31.3377
LeftLeg  43.3953 0.89577 1.31046
LeftFoot  -5.84603 -0.507684 11.2663
LeftToes  1.06244e-005 4.65856e-005 -8.18505e-006
97
root  -39.5974 36.658 -32.6185 47.4189 -81.9755 -9.11899
RightUpLeg  -80.6763 -21.222 32.1681
RightLeg  37.4737 0.727759 0.321711
RightFoot  -0.0995928 1.44194 -14.5595
RightToes  0.00048216 0.542163 -0.142577
Spine  73.2534 -6.66321 5.12559
Spine1  3.64203 -1.34729 -9.44084
HEad  -51.165 2.19059 -2.91531
LeftShoulder1  2.76925 -15.9723 -6.53095
LeftArm  -94.5377 -61.3472 24.8625
LeftForeArm  2.40387 -23.4701 -4.87219
LeftHand  -0.25398 0.0180481 5.50724
RightShoulder  2.08861 15.1453 3.16135
RightArm  -74.1958 50.3179 -5.61411
RightForeArm  -11.3549 24.7095 5.85778
RightHand  1.31291 5.01365 14.1634
LeftUpLeg  -80.1954 21.4523 -30.835
LeftLeg  42.2265 0.955332 1.32527
LeftFoot  -4.96528 -0.638931 11.9636
LeftToes  1.06244e-005 4.65856e-005 -8.18505e-006
98
root  -39.222 36.8124 -32.5558 45.6516 -81.5477 -8.99997
RightUpLeg  -78.9497 -22.3008 31.9439
RightLeg  35.8951 0.982824 0.4967
RightFoot  0.896067 1.5787 -14.5723
RightToes  0.00048216 0.542163 -0.142577
Spine  72.4528 -6.95056 5.09624
Spine1  4.83295 -1.47691 -9.85743
HEad  -51.2166 2.75753 -3.88078
LeftShoulder1  2.58771 -15.1602 -6.1403
LeftArm  -91.2838 -62.4809 20.644
LeftForeArm  1.67102 -25.3262 -5.34454
LeftHand  -0.25398 0.0180481 5.50724
RightShoulder  2.23166 15.5561 3.73715
RightArm  -71.0938 49.2881 -3.02479
RightForeArm  -12.8107 26.1599 6.25724
RightHand  1.26569 3.64985 15.8549
LeftUpLeg  -78.0449 21.5335 -29.9373
LeftLeg  40.6805 0.987694 1.29819
LeftFoot  -4.02806 -0.76946 12.3736
LeftToes  1.06244e-005 4.65856e-005 -8.18505e-006
99
root  -38.8204 37.0121 -32.5063 43.1128 -81.0301 -8.42424
RightUpLeg  -76.7822 -23.6854 31.6443
RightLeg  33.9275 1.09643 0.535695
RightFoot  1.95373 1.72192 -14.5626
RightToes  0.00048216 0.542163 -0.142577
Spine  71.6286 -7.21775 5.07806
Spine1  5.99748 -1.66831 -10.1506
HEad  -51.333 3.51194 -4.99189
LeftShoulder1  2.4447 -14.2745 -6.01688
LeftArm  -86.8314 -63.8507 15.6424
LeftForeArm  0.899808 -26.7871 -5.71349
LeftHand  -0.25398 0.0180481 5.50724
RightShoulder  2.27415 15.56 3.98522
RightArm  -67.9154 48.7515 0.279707
RightForeArm  -13.6211 26.8168 6.45165
RightHand  1.15154 1.79109 18.2854
LeftUpLeg  -75.2664 21.7548 -29.0294
LeftLeg  38.6004 0.896868 1.1465
LeftFoot  -3.13556 -0.897112 12.7122
LeftToes  1.06244e-005 4.65856e-005 -8.18505e-006
100
root  -38.3888 37.2371 -32.4851 39.9948 -80.4201 -7.50194
RightUpLeg  -74.1828 -25.1656 31.0928
RightLeg  31.5604 1.09645 0.47622
RightFoot  3.01759 1.85713 -14.4849
RightToes  0.00048216 0.542163 -0.142577
Spine  70.8047 -7.42328 5.06558
Spine1  6.94267 -1.87478 -10.3302
HEad  -51.4669 4.40312 -6.44807
LeftShoulder1  2.24097 -13.2002 -5.63718
LeftArm  -80.5497 -65.3322 8.91904
LeftForeArm  0.415025 -27.4239 -5.88823
LeftHand  -0.25398 0.0180481 5.50724
RightShoulder  2.20575 15.3695 3.71231
RightArm  -63.97 48.2614 4.47299
RightForeArm  -14.8881 26.6076 6.4609
RightHand  1.00797 0.499561 19.6525
LeftUpLeg  -72.122 22.2078 -28.3957
LeftLeg  36.0459 0.620546 0.852878
LeftFoot  -2.13732 -1.07569 13.4514
LeftToes  1.06244e-005 4.65856e-005 -8.18505e-006
101
root  -37.9338 37.4697 -32.4838 37.1864 -79.6942 -7.0333
RightUpLeg  -71.2081 -26.4863 30.1642
RightLeg  29.0788 1.09212 0.417344
RightFoot  4.30039 1.96919 -14.0409
RightToes  0.00048216 0.542163 -0.142577
Spine  69.6441 -7.86397 5.13102
Spine1  8.32879 -2.01874 -11.1275
HEad  -52.2033 5.49843 -8.20749
LeftShoulder1  1.91016 -11.9746 -4.42698
LeftArm  -72.9269 -66.2129 0.936744
LeftForeArm  -0.422273 -27.6289 -5.9802
LeftHand  -0.25398 0.0180481 5.50724
RightShoulder  2.084 15.161 3.12335
RightArm  -59.6583 47.4872 9.25218
RightForeArm  -17.2372 26.5237 6.54738
RightHand  0.88839 0.0348608 18.9513
LeftUpLeg  -68.8201 22.869 -27.8604
LeftLeg  33.227 0.112381 0.436952
LeftFoot  -0.999197 -1.30148 14.3676
LeftToes  1.06244e-005 4.65856e-005 -8.18505e-006
102
root  -37.4747 37.7065 -32.4831 35.2525 -78.7928 -7.54202
RightUpLeg  -68.0358 -27.7981 29.2003
RightLeg  26.6812 0.937964 0.281672
RightFoot  5.83675 2.05654 -13.2753
RightToes  0.00048216 0.542163 -0.142577
Spine  68.0684 -8.57595 5.39636
Spine1  10.2489 -2.02049 -12.5116
HEad  -53.5037 6.71309 -10.4029
LeftShoulder1  1.6079 -10.8783 -3.12724
LeftArm  -64.186 -65.9723 -8.17462
LeftForeArm  -1.54846 -28.7287 -6.30379
LeftHand  -0.25398 0.0180481 5.50724
RightShoulder  2.03505 14.9298 2.98413
RightArm  -54.8772 46.1818 14.2304
RightForeArm  -20.046 27.9438 7.02048
RightHand  0.728911 -0.462804 17.246
LeftUpLeg  -65.3607 23.6059 -27.0647
LeftLeg  30.2981 -0.644896 -0.0585591
LeftFoot  0.227981 -1.52257 14.9277
LeftToes  1.06244e-005 4.65856e-005 -8.18505e-006
103
root  -37.0222 37.9437 -32.4852 34.0787 -77.7387 -8.84403
RightUpLeg  -64.8105 -29.3361 28.5018
RightLeg  24.1689 1.25083 0.370169
RightFoot  7.64395 2.20353 -12.7846
RightToes  0.00048216 0.542163 -0.142577
Spine  66.5671 -8.98688 5.73743
Spine1  11.4141 -1.95169 -13.1026
HEad  -54.1932 7.96699 -13.7059
LeftShoulder1  1.49945 -9.99252 -3.20462
LeftArm  -53.006 -64.1528 -20.2383
LeftForeArm  -1.59311 -32.0251 -7.14887
LeftHand  -0.25398 0.0180481 5.50724
RightShoulder  2.19626 14.8733 4.01121
RightArm  -48.9648 43.792 18.8397
RightForeArm  -22.3586 31.2613 7.97966
RightHand  0.520372 -1.49325 15.9416
LeftUpLeg  -61.7735 24.2855 -25.9151
LeftLeg  27.2865 -1.57192 -0.540296
LeftFoot  1.62529 -1.7623 15.3186
LeftToes  1.06244e-005 4.65856e-005 -8.18505e-006
